#!OML:ASF X:\für Bonn\!DataBase\2005_08_12_Daniel\c3d\Daniel.ASF
:FULLY-SPECIFIED
:DEGREES
178
root -3.80643 16.9434 -1.44625 -236.075 -89.6772 225.03
lowerback 25.9945 -2.16908 2.88629
upperback 0.0644766 -2.37471 -1.83543
thorax -14.773 -1.42099 -2.87724
lowerneck 2.19327 3.64423 -1.45012
upperneck 4.34552 4.84213 -2.17736
head 0.987232 2.3454 -0.415936
rclavicle -3.69771e-015 7.95139e-015
rhumerus 56.0561 2.52517 -101.617
rradius 7.00181
rwrist 67.256
rhand -24.3707 8.02616
rfingers 7.12502
rthumb 2.11939 -21.9431
lclavicle -3.69771e-015 7.95139e-015
lhumerus 57.6629 5.13344 97.9732
lradius 8.20297
lwrist -72.3267
lhand -18.0504 3.78994
lfingers 7.12502
lthumb 8.22165 33.61
rfemur -5.45968 -10.4824 13.0712
rtibia 40.2844
rfoot 344.83 7.16628
rtoes -4.93171
lfemur -548.047 182.759 -193.107
ltibia 42.1442
lfoot -23.5069 -0.990409
ltoes -0.909578
179
root -3.81991 16.971 -1.44856 -213.791 -89.6524 202.756
lowerback 25.7774 -2.10024 2.77429
upperback -0.0867788 -2.31957 -1.85186
thorax -14.8241 -1.38918 -2.85614
lowerneck 2.16105 3.62151 -1.4474
upperneck 4.54081 4.81368 -2.13645
head 1.05211 2.32751 -0.401503
rclavicle 7.85044e-016 2.14687e-014
rhumerus 55.9441 2.55306 -101.493
rradius 6.99809
rwrist 67.1917
rhand -24.3616 7.86082
rfingers 7.12502
rthumb 2.12817 -22.1083
lclavicle 7.85044e-016 2.14687e-014
lhumerus 57.6607 5.17638 97.9646
lradius 8.10144
lwrist -72.3771
lhand -18.292 3.73662
lfingers 7.12502
lthumb 7.98853 33.5657
rfemur -4.52715 -9.52497 13.3304
rtibia 38.7897
rfoot 343.915 6.24202
rtoes -5.68181
lfemur -547.277 183.98 -193.603
ltibia 41.0947
lfoot -24.0499 0.444829
ltoes -1.14825
180
root -3.83349 16.997 -1.45117 -198.073 -89.6158 187.039
lowerback 25.5581 -2.04807 2.65707
upperback -0.228776 -2.28597 -1.85517
thorax -14.8634 -1.36563 -2.80839
lowerneck 2.11158 3.61308 -1.47914
upperneck 4.75104 4.80388 -2.08223
head 1.1236 2.31813 -0.376895
rclavicle 2.98643e-014 1.19271e-015
rhumerus 55.7953 2.60841 -101.355
rradius 7.03704
rwrist 67.1231
rhand -24.3356 7.69185
rfingers 7.12502
rthumb 2.15325 -22.277
lclavicle 2.98643e-014 1.19271e-015
lhumerus 57.6756 5.25791 97.9574
lradius 7.97273
lwrist -72.481
lhand -18.531 3.63449
lfingers 7.12502
lthumb 7.7578 33.4722
rfemur -3.6139 -8.5614 13.6068
rtibia 37.3503
rfoot 343.004 5.2408
rtoes -6.49656
lfemur -546.532 185.244 -194.112
ltibia 40.0976
lfoot -24.5742 1.9034
ltoes -1.34513
181
root -3.84659 17.0198 -1.45353 -185.503 -89.5394 174.481
lowerback 25.3012 -1.99363 2.53605
upperback -0.343973 -2.25261 -1.86475
thorax -14.849 -1.34158 -2.766
lowerneck 2.06316 3.60589 -1.49898
upperneck 4.90656 4.79585 -2.04629
head 1.17884 2.31077 -0.360316
rclavicle -9.43606e-015 -5.96354e-015
rhumerus 55.6682 2.65046 -101.21
rradius 7.09294
rwrist 67.0506
rhand -24.2787 7.52716
rfingers 7.12502
rthumb 2.20823 -22.4412
lclavicle -9.43606e-015 -5.96354e-015
lhumerus 57.6623 5.34132 97.9375
lradius 8.01631
lwrist -72.6228
lhand -18.6528 3.53497
lfingers 7.12502
lthumb 7.64031 33.377
rfemur -2.74442 -7.52891 13.8969
rtibia 35.9582
rfoot 342.154 4.173
rtoes -7.17915
lfemur -545.825 186.528 -194.638
ltibia 39.1698
lfoot -25.1316 3.40562
ltoes -1.59205
182
root -3.85929 17.0401 -1.45602 -178.32 -89.4647 167.307
lowerback 25.0514 -1.94344 2.4353
upperback -0.467052 -2.21678 -1.8662
thorax -14.8479 -1.31763 -2.72661
lowerneck 2.08897 3.59394 -1.53902
upperneck 5.04107 4.7779 -2.00291
head 1.21438 2.29874 -0.339849
rclavicle -5.85172e-015 -7.15625e-015
rhumerus 55.4503 2.6895 -101.054
rradius 7.23572
rwrist 66.9109
rhand -24.1668 7.41417
rfingers 7.12502
rthumb 2.31623 -22.553
lclavicle -5.85172e-015 -7.15625e-015
lhumerus 57.4848 5.45318 97.9043
lradius 8.33352
lwrist -72.8585
lhand -18.5614 3.36298
lfingers 7.12502
lthumb 7.72848 33.2017
rfemur -1.89679 -6.48156 14.2179
rtibia 34.5966
rfoot 341.366 3.04559
rtoes -7.63017
lfemur -545.156 187.873 -195.155
ltibia 38.3208
lfoot -25.7033 4.8676
ltoes -1.74564
183
root -3.87268 17.0599 -1.45815 -172.403 -89.3739 161.418
lowerback 24.7452 -1.88913 2.33198
upperback -0.562917 -2.17821 -1.87337
thorax -14.7817 -1.29183 -2.6939
lowerneck 2.10082 3.5803 -1.5687
upperneck 5.15897 4.75822 -1.96103
head 1.24742 2.28637 -0.32141
rclavicle -1.63749e-014 2.38542e-015
rhumerus 55.3177 2.73659 -100.901
rradius 7.29965
rwrist 66.7442
rhand -24.1091 7.25644
rfingers 7.12502
rthumb 2.37199 -22.7101
lclavicle -1.63749e-014 2.38542e-015
lhumerus 57.3175 5.54109 97.8834
lradius 8.72319
lwrist -73.0918
lhand -18.3135 3.20091
lfingers 7.12502
lthumb 7.9678 33.0307
rfemur -1.08123 -5.37744 14.5536
rtibia 33.2571
rfoot 340.616 1.85795
rtoes -8.09899
lfemur -544.535 189.239 -195.69
ltibia 37.5589
lfoot -26.3078 6.33998
ltoes -1.83019
184
root -3.88525 17.079 -1.46117 -167.415 -89.3091 156.48
lowerback 24.4006 -1.84493 2.22808
upperback -0.649495 -2.1529 -1.87848
thorax -14.6828 -1.27145 -2.65379
lowerneck 2.20774 3.56449 -1.60053
upperneck 5.19071 4.73143 -1.92042
head 1.23736 2.27241 -0.305707
rclavicle -1.11071e-014 5.56597e-015
rhumerus 55.1958 2.76242 -100.728
rradius 7.36982
rwrist 66.545
rhand -24.035 7.19483
rfingers 7.12502
rthumb 2.4436 -22.7709
lclavicle -1.11071e-014 5.56597e-015
lhumerus 57.2202 5.63818 97.8524
lradius 8.99165
lwrist -73.252
lhand -18.1342 3.08641
lfingers 7.12502
lthumb 8.14078 32.9096
rfemur -0.303975 -4.25097 14.9026
rtibia 31.9395
rfoot 339.951 0.632595
rtoes -8.40978
lfemur -543.985 190.664 -196.222
ltibia 36.8846
lfoot -26.9465 7.75453
ltoes -1.73275
185
root -3.89775 17.0992 -1.4637 -163.95 -89.2595 153.082
lowerback 24.0294 -1.80691 2.13664
upperback -0.730008 -2.12988 -1.87082
thorax -14.5608 -1.2521 -2.60548
lowerneck 2.34899 3.55071 -1.62806
upperneck 5.18511 4.70675 -1.91241
head 1.21086 2.25989 -0.30166
rclavicle 8.26199e-015 8.34896e-015
rhumerus 55.0965 2.7816 -100.529
rradius 7.39889
rwrist 66.3425
rhand -23.976 7.17451
rfingers 7.12502
rthumb 2.50054 -22.7906
lclavicle 8.26199e-015 8.34896e-015
lhumerus 57.142 5.73835 97.8386
lradius 9.19876
lwrist -73.3963
lhand -17.9148 3.0259
lfingers 7.12502
lthumb 8.35253 32.8408
rfemur 0.438867 -3.06404 15.2959
rtibia 30.6554
rfoot 339.367 -0.733518
rtoes -8.71714
lfemur -543.494 192.114 -196.74
ltibia 36.29
lfoot -27.5957 9.17204
ltoes -1.56697
186
root -3.9106 17.1187 -1.46667 -160.445 -89.2065 149.653
lowerback 23.6157 -1.76572 2.05206
upperback -0.789798 -2.10264 -1.8742
thorax -14.3899 -1.23158 -2.57572
lowerneck 2.48366 3.52752 -1.68974
upperneck 5.15955 4.66809 -1.87493
head 1.1776 2.24059 -0.283175
rclavicle -5.24295e-015 -2.38542e-015
rhumerus 55.0342 2.78879 -100.333
rradius 7.38629
rwrist 66.0864
rhand -23.9699 7.19092
rfingers 7.12502
rthumb 2.50647 -22.7741
lclavicle -5.24295e-015 -2.38542e-015
lhumerus 57.114 5.82008 97.8164
lradius 9.3099
lwrist -73.3252
lhand -17.7807 2.95639
lfingers 7.12502
lthumb 8.48198 32.7661
rfemur 1.14214 -1.85607 15.6848
rtibia 29.4281
rfoot 338.863 -2.10157
rtoes -8.97661
lfemur -543.038 193.548 -197.264
ltibia 35.7638
lfoot -28.1777 10.5362
ltoes -1.51455
187
root -3.92301 17.1357 -1.4697 -156.619 -89.1697 145.914
lowerback 23.1985 -1.7374 1.96723
upperback -0.857296 -2.09224 -1.88108
thorax -14.2267 -1.21901 -2.54377
lowerneck 2.62723 3.50952 -1.69161
upperneck 5.14801 4.63815 -1.87266
head 1.14976 2.22598 -0.285097
rclavicle 6.07536e-015 3.57812e-015
rhumerus 54.9639 2.7622 -100.123
rradius 7.34143
rwrist 65.7977
rhand -24.005 7.31162
rfingers 7.12502
rthumb 2.4725 -22.6538
lclavicle 6.07536e-015 3.57812e-015
lhumerus 57.0689 5.92531 97.7683
lradius 9.34646
lwrist -73.1461
lhand -17.7476 2.93413
lfingers 7.12502
lthumb 8.51396 32.7425
rfemur 1.79861 -0.575007 16.093
rtibia 28.2829
rfoot 338.377 -3.54998
rtoes -9.24271
lfemur -542.624 194.957 -197.779
ltibia 35.2842
lfoot -28.7345 11.8653
ltoes -1.33917
